<svg width="16" height="16" viewBox="0 0 16 16" fill="none" xmlns="http://www.w3.org/2000/svg">
<path d="M8 0C3.58 0 0 3.58 0 8C0 12.42 3.58 16 8 16C12.42 16 16 12.42 16 8C16 3.58 12.42 0 8 0ZM8 14C4.69 14 2 11.31 2 8C2 4.69 4.69 2 8 2C11.31 2 14 4.69 14 8C14 11.31 11.31 14 8 14Z" fill="currentColor"/>
<path d="M8 3C5.79 3 4 4.79 4 7C4 9.21 5.79 11 8 11C10.21 11 12 9.21 12 7C12 4.79 10.21 3 8 3ZM8 9C6.9 9 6 8.1 6 7C6 5.9 6.9 5 8 5C9.1 5 10 5.9 10 7C10 8.1 9.1 9 8 9Z" fill="currentColor"/>
</svg>
