<svg width="180" height="38" viewBox="0 0 180 38" fill="none" xmlns="http://www.w3.org/2000/svg">
<path d="M20.3 7.8L34.4 28h-4.4l-10.1-14.4-10.1 14.4H5.4L19.5 7.8V1H20.3V7.8Z" fill="currentColor"/>
<path d="M28.8 15.2v8.4H24.8V15.2H28.8Z" fill="currentColor"/>
<path d="M32.8 15.2h4v1.6c1.2-1.2 2.8-1.8 4.8-1.8 3.6 0 6 2.4 6 6v2.6h-4v-2.6c0-1.2-0.8-2-2-2s-2 0.8-2 2v2.6h-4v-8.4h-2.8Z" fill="currentColor"/>
<path d="M60.4 19.6c0 2.4-2 4.4-4.4 4.4h-8v-8.8h8c2.4 0 4.4 2 4.4 4.4Zm-8.4-0.4v4.8h4c1.2 0 2-0.8 2-2s-0.8-2-2-2h-4Z" fill="currentColor"/>
<path d="M76.4 15.2v1.6c-1.2-1.2-2.8-1.8-4.4-1.8-3.2 0-5.6 2.4-5.6 5.6s2.4 5.6 5.6 5.6c1.6 0 3.2-0.6 4.4-1.8v1.6h4v-8.8h-4Zm-0.4 5.2c0 1.6-1.2 2.8-2.8 2.8s-2.8-1.2-2.8-2.8 1.2-2.8 2.8-2.8 2.8 1.2 2.8 2.8Z" fill="currentColor"/>
<path d="M88 15.2v8.4h4v-8.4h-4Z" fill="currentColor"/>
<path d="M100.4 15.2v1.6c1.2-1.2 2.8-1.8 4.8-1.8 3.6 0 6 2.4 6 6v2.6h-4v-2.6c0-1.2-0.8-2-2-2s-2 0.8-2 2v2.6h-4v-8.4h1.2Z" fill="currentColor"/>
<path d="M128 19.6c0 2.4-2 4.4-4.4 4.4h-8v-8.8h8c2.4 0 4.4 2 4.4 4.4Zm-8.4-0.4v4.8h4c1.2 0 2-0.8 2-2s-0.8-2-2-2h-4Z" fill="currentColor"/>
<path d="M144.4 15.2v1.6c-1.2-1.2-2.8-1.8-4.4-1.8-3.2 0-5.6 2.4-5.6 5.6s2.4 5.6 5.6 5.6c1.6 0 3.2-0.6 4.4-1.8v1.6h4v-8.8h-4Zm-0.4 5.2c0 1.6-1.2 2.8-2.8 2.8s-2.8-1.2-2.8-2.8 1.2-2.8 2.8-2.8 2.8 1.2 2.8 2.8Z" fill="currentColor"/>
<path d="M156 15.2v8.4h4v-8.4h-4Z" fill="currentColor"/>
<path d="M168.4 15.2v1.6c1.2-1.2 2.8-1.8 4.8-1.8 3.6 0 6 2.4 6 6v2.6h-4v-2.6c0-1.2-0.8-2-2-2s-2 0.8-2 2v2.6h-4v-8.4h1.2Z" fill="currentColor"/>
</svg>
